<svg width="72" height="90" viewBox="0 0 72 90" fill="none" xmlns="http://www.w3.org/2000/svg">
<g clip-path="url(#clip0_35_12029)">
<path d="M39.0921 1.71738H9.9083C5.06739 1.71738 1.14856 5.61928 1.14856 10.4487V80.3379C1.14856 85.175 5.06739 89.0769 9.9083 89.0769H39.0997C43.933 89.0769 47.8595 85.175 47.8595 80.3379V10.4487C47.8595 5.61161 43.9407 1.70972 39.0997 1.70972L39.0921 1.71738Z" stroke="#200020" stroke-width="2" stroke-linejoin="round"/>
<path d="M33.26 1.71741V4.63041C33.26 5.41999 32.9526 6.14824 32.407 6.70018C31.8615 7.22146 31.1161 7.54342 30.3401 7.54342H18.6681C17.892 7.54342 17.1467 7.22146 16.6011 6.70018C16.0555 6.14824 15.7482 5.41999 15.7482 4.63041V1.71741" stroke="#DA0081" stroke-width="2" stroke-linejoin="round"/>
<path d="M15.7405 0.843506V2.58364" stroke="white" stroke-width="2"/>
<path d="M33.2599 0.843506V2.58364" stroke="white" stroke-width="2"/>
<path d="M24.5002 80.3379C26.1129 80.3379 27.4201 79.0337 27.4201 77.4248C27.4201 75.816 26.1129 74.5118 24.5002 74.5118C22.8876 74.5118 21.5803 75.816 21.5803 77.4248C21.5803 79.0337 22.8876 80.3379 24.5002 80.3379Z" fill="#DA0081"/>
<path d="M67.4843 47.444H37.9471C36.2199 47.444 34.8197 48.8408 34.8197 50.564V80.0313C34.8197 81.7544 36.2199 83.1513 37.9471 83.1513H67.4843C69.2115 83.1513 70.6117 81.7544 70.6117 80.0313V50.564C70.6117 48.8408 69.2115 47.444 67.4843 47.444Z" fill="#ECE7F5" stroke="#200020" stroke-width="2" stroke-linejoin="round"/>
<path d="M47.8518 46.0028V48.7012" stroke="white" stroke-width="2" stroke-linejoin="round"/>
<path d="M47.1526 81.9247V84.623" stroke="white" stroke-width="2" stroke-linejoin="round"/>
<path d="M13.5351 19.7627H10.1003C9.70143 19.7627 9.37805 20.0853 9.37805 20.4833V23.3963C9.37805 23.7943 9.70143 24.1169 10.1003 24.1169H13.5351C13.934 24.1169 14.2574 23.7943 14.2574 23.3963V20.4833C14.2574 20.0853 13.934 19.7627 13.5351 19.7627Z" fill="#DA0081"/>
<path d="M34.4971 19.7627H31.5387C31.1315 19.7627 30.8164 20.0923 30.8164 20.4833V32.2809C30.8164 32.5186 30.5014 32.6106 30.3861 32.3959L23.5013 20.077C23.386 19.8777 23.1862 19.7627 22.948 19.7627H18.0303C17.623 19.7627 17.308 20.0923 17.308 20.4833V39.3335C17.308 39.7398 17.6384 40.0541 18.0303 40.0541H20.9886C21.3959 40.0541 21.7109 39.7244 21.7109 39.3335V27.1832C21.7109 26.9455 22.0259 26.8535 22.1412 27.0682L29.2105 39.7474C29.3257 39.9467 29.5255 40.0617 29.7637 40.0617H34.4663C34.8736 40.0617 35.1886 39.7321 35.1886 39.3411V20.4756C35.1886 20.0693 34.8582 19.755 34.4663 19.755H34.4894L34.4971 19.7627Z" fill="#200020"/>
<path d="M43.103 65.2669L49.8035 71.9515L62.2285 59.5559" fill="#ECE7F5"/>
<path d="M43.103 65.2669L49.8035 71.9515L62.2285 59.5559" stroke="#DA0081" stroke-width="2" stroke-linejoin="round"/>
</g>
<defs>
<clipPath id="clip0_35_12029">
<rect width="71" height="89" fill="white" transform="translate(0.380127 0.843506)"/>
</clipPath>
</defs>
</svg>
