<svg width="64" height="91" viewBox="0 0 64 91" fill="none" xmlns="http://www.w3.org/2000/svg">
<g clip-path="url(#clip0_35_12000)">
<path d="M46.7926 1.22723H17.2074C12.3077 1.22723 8.32715 5.17297 8.32715 10.0644V80.7389C8.32715 85.6303 12.2999 89.5761 17.2074 89.5761H46.8004C51.7001 89.5761 55.6806 85.6303 55.6806 80.7389V10.0567C55.6806 5.16522 51.7079 1.21948 46.8004 1.21948L46.7926 1.22723Z" fill="#ECE7F5" stroke="#200020" stroke-width="2" stroke-linejoin="round"/>
<path d="M40.8802 1.22717V4.17291C40.8802 4.97136 40.5687 5.70779 40.0156 6.26593C39.4625 6.79306 38.7069 7.11865 37.9202 7.11865H26.0876C25.3009 7.11865 24.5453 6.79306 23.9922 6.26593C23.4391 5.70779 23.1276 4.97136 23.1276 4.17291V1.22717" stroke="#DA0081" stroke-width="2" stroke-linejoin="round"/>
<path d="M23.1198 0.343506V2.1032" stroke="white" stroke-width="2"/>
<path d="M40.8802 0.343506V2.1032" stroke="white" stroke-width="2"/>
<path d="M32 80.7311C33.6348 80.7311 34.9601 79.4122 34.9601 77.7853C34.9601 76.1585 33.6348 74.8396 32 74.8396C30.3652 74.8396 29.0399 76.1585 29.0399 77.7853C29.0399 79.4122 30.3652 80.7311 32 80.7311Z" fill="#DA0081"/>
<path d="M58.1343 14.266H5.86559C3.05631 14.266 0.778931 16.5323 0.778931 19.328V63.2815C0.778931 66.0772 3.05631 68.3435 5.86559 68.3435H58.1343C60.9436 68.3435 63.221 66.0772 63.221 63.2815V19.328C63.221 16.5323 60.9436 14.266 58.1343 14.266Z" fill="white" stroke="#200020" stroke-width="2" stroke-linejoin="round"/>
<path d="M18.1344 25.8551H12.6894C12.057 25.8551 11.5443 26.3653 11.5443 26.9946V31.5993C11.5443 32.2286 12.057 32.7388 12.6894 32.7388H18.1344C18.7668 32.7388 19.2795 32.2286 19.2795 31.5993V26.9946C19.2795 26.3653 18.7668 25.8551 18.1344 25.8551Z" fill="#DA0081"/>
<path d="M51.3573 25.8551H46.6679C46.0292 25.8551 45.5228 26.3745 45.5228 26.9946V45.6458C45.5228 46.0256 45.0243 46.1652 44.8373 45.8241L33.9318 26.3512C33.7526 26.0334 33.4333 25.8551 33.0516 25.8551H25.2541C24.6153 25.8551 24.109 26.3745 24.109 26.9946V56.8008C24.109 57.4365 24.6309 57.9404 25.2541 57.9404H29.9435C30.5822 57.9404 31.0886 57.421 31.0886 56.8008V37.5915C31.0886 37.2117 31.5871 37.0722 31.7741 37.4132L42.9834 57.4675C43.1626 57.7853 43.4819 57.9636 43.8636 57.9636H51.3184C51.9571 57.9636 52.4634 57.4443 52.4634 56.8241V26.9946C52.4634 26.359 51.9415 25.8551 51.3184 25.8551H51.3573Z" fill="#200020"/>
</g>
<defs>
<clipPath id="clip0_35_12000">
<rect width="64" height="90" fill="white" transform="translate(0 0.343506)"/>
</clipPath>
</defs>
</svg>
