<svg width="90" height="83" viewBox="0 0 90 83" fill="none" xmlns="http://www.w3.org/2000/svg">
<g clip-path="url(#clip0_35_12015)">
<path d="M47.202 1.62952H6.89337C3.76906 1.62952 1.23376 4.17621 1.23376 7.31455V42.4452C1.23376 45.5835 3.76906 48.1302 6.89337 48.1302H11.3152V54.6641C11.3152 55.3587 12.1518 55.7017 12.6383 55.2129L19.6894 48.1302H47.2106C50.3349 48.1302 52.8702 45.5835 52.8702 42.4452V7.31455C52.8702 4.17621 50.3349 1.62952 47.2106 1.62952H47.202Z" fill="#ECE7F5" stroke="#200020" stroke-width="2" stroke-linejoin="round"/>
<path d="M39.9035 14.5088C36.9158 11.5076 32.0671 11.5076 29.0794 14.5088L27.6111 15.9836L26.1429 14.5088C23.1552 11.5076 18.3065 11.5076 15.3188 14.5088C12.3311 17.5099 12.3311 22.3804 15.3188 25.3815L27.6111 37.3861L39.9035 25.3815C42.8912 22.3804 42.8912 17.5099 39.9035 14.5088Z" fill="#ECE7F5" stroke="#DA0081" stroke-width="2" stroke-linejoin="round"/>
<path d="M42.5497 28.1083H82.8669C85.9912 28.1083 88.5265 30.655 88.5265 33.7933V68.9239C88.5265 72.0623 85.9912 74.609 82.8669 74.609H78.4451V81.1429C78.4451 81.8374 77.6085 82.1804 77.122 81.6917L70.0709 74.609H42.5497C39.4254 74.609 36.8901 72.0623 36.8901 68.9239V33.7933C36.8901 30.655 39.4254 28.1083 42.5497 28.1083Z" fill="white" stroke="#200020" stroke-width="2" stroke-linejoin="round"/>
<path d="M51.7007 54.8957C53.4969 54.8957 54.9531 53.4331 54.9531 51.6288C54.9531 49.8245 53.4969 48.3618 51.7007 48.3618C49.9045 48.3618 48.4484 49.8245 48.4484 51.6288C48.4484 53.4331 49.9045 54.8957 51.7007 54.8957Z" fill="white" stroke="#DA0081" stroke-width="2" stroke-linejoin="round"/>
<path d="M64.2576 54.8957C66.0538 54.8957 67.51 53.4331 67.51 51.6288C67.51 49.8245 66.0538 48.3618 64.2576 48.3618C62.4614 48.3618 61.0052 49.8245 61.0052 51.6288C61.0052 53.4331 62.4614 54.8957 64.2576 54.8957Z" fill="white" stroke="#DA0081" stroke-width="2" stroke-linejoin="round"/>
<path d="M76.8146 54.8957C78.6108 54.8957 80.067 53.4331 80.067 51.6288C80.067 49.8245 78.6108 48.3618 76.8146 48.3618C75.0184 48.3618 73.5623 49.8245 73.5623 51.6288C73.5623 53.4331 75.0184 54.8957 76.8146 54.8957Z" fill="white" stroke="#DA0081" stroke-width="2" stroke-linejoin="round"/>
<path d="M52.8616 27.1565V29.1458" stroke="white" stroke-width="2" stroke-linejoin="round"/>
<path d="M37.9828 48.1217H36.0023" stroke="white" stroke-width="2" stroke-linejoin="round"/>
</g>
<defs>
<clipPath id="clip0_35_12015">
<rect width="89" height="82" fill="white" transform="translate(0.380127 0.772095)"/>
</clipPath>
</defs>
</svg>
